<svg width="301" height="75" viewBox="0 0 301 75" fill="none" xmlns="http://www.w3.org/2000/svg">
<path d="M115.906 46.9062C115.906 45.3021 115.333 44.0521 114.188 43.1562C113.062 42.2604 111.073 41.3333 108.219 40.375C105.365 39.4167 103.031 38.4896 101.219 37.5938C95.3229 34.6979 92.375 30.7188 92.375 25.6562C92.375 23.1354 93.1042 20.9167 94.5625 19C96.0417 17.0625 98.125 15.5625 100.812 14.5C103.5 13.4167 106.521 12.875 109.875 12.875C113.146 12.875 116.073 13.4583 118.656 14.625C121.26 15.7917 123.281 17.4583 124.719 19.625C126.156 21.7708 126.875 24.2292 126.875 27H115.938C115.938 25.1458 115.365 23.7083 114.219 22.6875C113.094 21.6667 111.562 21.1562 109.625 21.1562C107.667 21.1562 106.115 21.5938 104.969 22.4688C103.844 23.3229 103.281 24.4167 103.281 25.75C103.281 26.9167 103.906 27.9792 105.156 28.9375C106.406 29.875 108.604 30.8542 111.75 31.875C114.896 32.875 117.479 33.9583 119.5 35.125C124.417 37.9583 126.875 41.8646 126.875 46.8438C126.875 50.8229 125.375 53.9479 122.375 56.2188C119.375 58.4896 115.26 59.625 110.031 59.625C106.344 59.625 103 58.9688 100 57.6562C97.0208 56.3229 94.7708 54.5104 93.25 52.2188C91.75 49.9062 91 47.25 91 44.25H102C102 46.6875 102.625 48.4896 103.875 49.6562C105.146 50.8021 107.198 51.375 110.031 51.375C111.844 51.375 113.271 50.9896 114.312 50.2188C115.375 49.4271 115.906 48.3229 115.906 46.9062ZM161.219 45.125L164.625 25.1875H174.719L166.75 59H157.844L152.25 38.9375L146.625 59H137.719L129.75 25.1875H139.844L143.188 45.5938L148.562 25.1875H155.906L161.219 45.125ZM189.625 59H179.062V25.1875H189.625V59ZM178.438 16.4688C178.438 14.9688 178.979 13.7396 180.062 12.7812C181.146 11.8229 182.552 11.3438 184.281 11.3438C186.01 11.3438 187.417 11.8229 188.5 12.7812C189.583 13.7396 190.125 14.9688 190.125 16.4688C190.125 17.9688 189.583 19.1979 188.5 20.1562C187.417 21.1146 186.01 21.5938 184.281 21.5938C182.552 21.5938 181.146 21.1146 180.062 20.1562C178.979 19.1979 178.438 17.9688 178.438 16.4688ZM198.469 59V32.5H193.562V25.1875H198.469V22.5C198.469 18.6458 199.604 15.6562 201.875 13.5312C204.146 11.4062 207.333 10.3438 211.438 10.3438C212.938 10.3438 214.583 10.5625 216.375 11L216.406 18.75C215.76 18.5625 214.896 18.4688 213.812 18.4688C210.625 18.4688 209.031 19.8438 209.031 22.5938V25.1875H215.625V32.5H209.031V59H198.469ZM231.594 16.7812V25.1875H237.156V32.5H231.594V47.9688C231.594 49.2396 231.823 50.125 232.281 50.625C232.74 51.125 233.646 51.375 235 51.375C236.042 51.375 236.917 51.3125 237.625 51.1875V58.7188C235.729 59.3229 233.75 59.625 231.688 59.625C228.062 59.625 225.385 58.7708 223.656 57.0625C221.927 55.3542 221.062 52.7604 221.062 49.2812V32.5H216.75V25.1875H221.062V16.7812H231.594ZM277.5 13.5V43.2812C277.5 46.6562 276.781 49.5833 275.344 52.0625C273.906 54.5208 271.844 56.3958 269.156 57.6875C266.469 58.9792 263.292 59.625 259.625 59.625C254.083 59.625 249.719 58.1875 246.531 55.3125C243.344 52.4375 241.719 48.5 241.656 43.5V13.5H252.688V43.7188C252.812 48.6979 255.125 51.1875 259.625 51.1875C261.896 51.1875 263.615 50.5625 264.781 49.3125C265.948 48.0625 266.531 46.0312 266.531 43.2188V13.5H277.5ZM296.062 59H285.125V13.5H296.062V59Z" fill="url(#paint0_linear)"/>
<path d="M30.2812 50.5H15.25L12.625 59H0.90625L17.5938 13.5H27.9062L44.7188 59H32.9375L30.2812 50.5ZM17.875 42.0312H27.6562L22.75 26.25L17.875 42.0312ZM58.6875 59H48.125V11H58.6875V59ZM77.4688 16.7812V25.1875H83.0312V32.5H77.4688V47.9688C77.4688 49.2396 77.6979 50.125 78.1562 50.625C78.6146 51.125 79.5208 51.375 80.875 51.375C81.9167 51.375 82.7917 51.3125 83.5 51.1875V58.7188C81.6042 59.3229 79.625 59.625 77.5625 59.625C73.9375 59.625 71.2604 58.7708 69.5312 57.0625C67.8021 55.3542 66.9375 52.7604 66.9375 49.2812V32.5H62.625V25.1875H66.9375V16.7812H77.4688Z" fill="#162730"/>
<defs>
<linearGradient id="paint0_linear" x1="89" y1="42.5" x2="295.5" y2="44" gradientUnits="userSpaceOnUse">
<stop stop-color="#1EA4DE"/>
<stop offset="1" stop-color="#0A1BB7"/>
</linearGradient>
</defs>
</svg>
